<?xml version="1.0" encoding="utf-8"?>
<!-- Generator: Adobe Illustrator 22.1.0, SVG Export Plug-In . SVG Version: 6.00 Build 0)  -->
<svg version="1.1" id="レイヤー_1" xmlns="http://www.w3.org/2000/svg" xmlns:xlink="http://www.w3.org/1999/xlink" x="0px"
	 y="0px" viewBox="0 0 300 120" style="enable-background:new 0 0 300 120;" xml:space="preserve">
<style type="text/css">
	.st0{fill:#C9151D;stroke:#C9151D;stroke-width:0.25;stroke-miterlimit:10;}
	.st1{fill:#231815;stroke:#231815;stroke-width:0.75;stroke-miterlimit:10;}
</style>
<g>
	<g>
		<g>
			<path class="st0" d="M46.8,55.8c0,0,0-0.3,0-0.5c-0.3,0.1-0.4,0.2-0.5,0.2l-2.2,0.7c-4.9,1.8-4.9,1.8-5.7,1.8
				c-0.4,0-0.4,0-1.6-0.4c0,0-0.1,0-0.2,0c-0.3,0-0.4,0.1-0.6,0.5c-0.4,0.7-0.5,1-0.5,1.2c0,0,0,0,0.2,0.8l0.1,0.5
				c0,0.2,0.2,0.4,0.5,0.6c1.1,0.9,1.4,1.3,1.4,1.7c0,0.4-0.4,0.8-0.9,0.8c-0.8,0-1.3-0.3-2.2-1.1c-0.9-0.9-1.7-2.9-1.7-4.5
				c0-0.2,0-0.5,0.1-1c0.2,0.2,0.4,0.3,0.4,0.4c0.4,0.5,0.6,0.6,0.8,0.6c0.4,0,0.4,0,2.3-1.7l0.4-0.2l0.6-0.3l1.3-0.4
				c1.3-0.5,2.7-0.9,4.1-1.5c0.5-0.2,2-0.5,3.9-0.8l0-3.4c-0.7,0.1-0.8,0.1-1.2,0.1L45.2,50l-1.6,0.5c-0.2,0-0.5,0.1-1,0.1
				c-0.6-0.6-0.8-0.9-0.8-1.3c0-0.3,0.1-0.5,0.4-0.9l0.1,0.2c0.1-0.1,0.2-0.1,0.2-0.1c0.3,0.1,0.3,0.1,0.4,0.1
				c0.3,0,3.5-1.6,3.8-1.9c0.4-0.3,0.6-0.6,0.6-0.9l-0.1-2.4c-0.2,0.1-0.4,0.2-0.5,0.2c-0.2,0-0.5,0.2-0.8,0.3
				c-0.5,0.1-0.9,0.2-1.4,0.3c-2,0.7-2.8,0.9-3.8,0.9c-1,0-1.7-0.5-2.1-1.6c0.3,0,0.4-0.1,0.5-0.1l0.9-0.2c0.4-0.1,1.1-0.3,2-0.6
				c0.4-0.2,0.8-0.3,0.9-0.3c0.5-0.1,0.9-0.2,1.4-0.3l2.4-0.7c0,0,0.3,0,0.5-0.1c0-0.7-0.1-1-0.1-2.1c-0.1-1.4-0.3-1.6-1.6-1.9
				C45,37.2,45,37.2,44.9,37c0.2-0.2,0.4-0.3,0.5-0.4c0.8-0.9,1-1,1.5-1c0.9,0,2.3,0.3,3.2,0.8c0.5,0.2,0.8,0.7,0.8,1.1
				c0,0.2,0,0.2-0.6,1c-0.1,0.4-0.3,1.1-0.5,2.2c0.2,0,0.4,0,0.5-0.1c0.8-0.1,1.3-0.2,1.4-0.2l3.5,0.1l0.9-0.3l0.4,0.1
				c2.7,0.8,2.7,0.8,2.7,1.4c0,0.3-0.2,0.6-0.4,0.7c0,0,0,0-0.9,0.3c-0.4,0.1-0.6,0.2-1.2,0.4l-6.9,3.2c-0.1,0.1-0.2,0.3-0.2,0.5
				c0,0.2,0,0.4,0.1,0.7c0.2,0,0.4-0.1,0.5-0.1c1.4-0.1,2-0.2,2-0.3c0,0,0.1-0.2,0.4-0.5c0.1-0.1,0.2-0.2,0.4-0.2
				c0.3,0,1.8,0.4,2.1,0.5c0.2,0.1,0.4,0.3,0.4,0.5c0,0.2-0.2,0.5-0.6,0.8c-0.4,0.3-0.4,0.3-3.6,0.5c-0.4,0-0.9,0.1-1.6,0.3
				c0,0.3-0.1,0.5-0.1,0.6V51l-0.1,1.1c0,0.1,0,0.2,0.1,0.5c4-0.7,5.8-1,6.9-1h2.4c0.6,0,0.9-0.1,1.1-0.1c0.4,0,0.5,0,2,0.6
				c1.6,0.5,2.1,0.9,2.1,1.7c0,0.1-0.1,0.3-0.2,0.3l-0.8,0.2L61,54.7l-0.9,0.1c-0.2,0-0.7,0.2-1.4,0.5L56.8,56l-7.3,3l-0.1,0
				c-0.1,0.2-0.2,0.4-0.2,0.6v0.2c0.3,0,0.5-0.1,0.6-0.1c0.4-0.1,0.9-0.1,1.4-0.2c0.7-0.1,1.4-0.2,2.2-0.2c0.4-0.1,0.8-0.2,2-0.4
				c0-0.2,0-0.3-0.1-0.3L54.8,58c0,0-0.2-0.2-0.3-0.4c0.3,0.2,0.5,0.3,0.7,0.3c0.1,0,0.4,0.1,1.1,0.3c0.4,0.1,0.8,0.2,1.3,0.3
				c0.7,0.2,0.8,0.3,1.4,0.8v0.2c-0.4,0.4-0.4,0.4-1.3,0.6c-0.3,0.1-0.9,0.2-1.8,0.3l-1.6,0.3l-3,0.3l-1,0.2l-0.4,0
				c0,0-0.3,0.1-0.5,0.1l-0.2,0.3c0,0.1-0.1,0.6-0.1,1.3l0,8.5V73c0,0.5-0.7,1.3-1.1,1.3c-0.9,0-2-2.3-2-4.2c0-0.2,0-0.2,0.7-2
				c0-0.2,0.2-2.1,0.2-2.7c0-0.3,0-1.2-0.1-3.5c-1.6,0.3-1.9,0.3-3.2,0.7l-1.5,0.3c-0.4,0.1-0.8,0.2-1.2,0.3c0,0-0.3,0.1-0.5,0.1
				c-0.4-0.2-0.6-0.5-0.6-1c0-0.3,0.2-0.6,0.4-0.7c0.2,0,0.4-0.1,0.4-0.1c0,0,0.1-0.1,0.1-0.2l0.1,0.1c0.9-0.5,1.6-0.8,2.3-1
				c2.4-1,2.8-1.1,3.5-1.6c0,0,0-0.1,0-0.1c0-0.2,0-0.3,0.1-1.7L46.8,55.8z M37.4,44.1c0.1,0.1,0.3,0.6,0.7,1.5
				c0,0.1,0.2,0.5,0.5,1.1c0.1,0.2,0.3,0.6,0.6,1.2c0.4,0.7,0.7,1.3,0.8,1.4c0.2,0.3,0.4,0.6,0.7,0.9c0.2,0.3,0.3,0.5,0.3,0.8
				c0,0.5-0.4,0.8-1,0.8s-1.2-0.4-1.6-1c-1-1.6-2-4.8-2-6.2c0-0.2,0.1-0.6,0.3-1.2L37.4,44.1z M56.6,54.1c0.1,0,0.3-0.1,0.5-0.2
				c0.4-0.1,0.6-0.3,0.6-0.5c0-0.1,0-0.2-0.1-0.3c-0.4,0-0.6-0.1-0.8-0.1h-0.7h-0.5h0l-0.8,0.1l-0.8,0.1c-4.3,0.9-4.3,0.9-4.5,1
				c-0.1,0.1-0.3,0.5-0.3,0.8l0,1.2l0,0.8c0,0.2,0,0.3,0.2,0.4h0.3l0.3-0.2c0.3-0.1,0.5-0.2,0.8-0.3l1-0.5l2.1-0.9L56.6,54.1z
				 M49.5,45.2c0.4-0.2,0.6-0.3,0.8-0.4c0.1-0.1,0.1-0.1,2.3-1.4c0.2-0.1,0.5-0.3,0.8-0.5c0,0,0.1-0.3,0.2-0.5c-0.6,0-0.8-0.1-1-0.1
				c-0.2,0-0.2,0-1.8,0.2l-0.6,0c-0.1,0-0.4,0.1-0.8,0.3l-0.1,2L49.5,45.2z"/>
			<path class="st0" d="M93,48.9c-1-0.1-1.8-0.2-2.4-0.2c-0.4,0-0.4,0-2,0.3c-1,0.3-1,0.3-2.1,0.4c-0.1,0.6-0.3,1.2-0.3,1.3
				c-0.1,0.3-0.4,1.5-0.7,3.2c-0.2,1-0.4,1.9-0.5,2.1c-0.1,0.3-0.2,0.7-0.3,1c-0.2,0.7-0.4,1.4-0.7,2.2c-0.4,1.3-0.6,1.6-1.5,3.2
				c-1.3,2.5-2.3,3.8-3.8,5.1c-1.8,1.6-5.2,3.2-6.7,3.2c-0.2,0-0.4,0-0.7,0c0.1-0.2,0.2-0.3,0.2-0.3c0.1-0.1,1-0.6,2.3-1.3
				c2.8-1.8,6.8-7,7.4-9.6c1.6-5.1,1.9-6.3,2-8.7c-0.4,0.2-0.8,0.3-0.8,0.4c-0.7,0.4-1.3,0.7-2,1.1l-0.8,0.4
				c-0.4,0.2-0.8,0.4-1.1,0.7L77,54.5c-0.3,0.2-0.6,0.3-0.9,0.3c-0.8,0-1.6-0.4-2.5-1.3c-1.1-1-1.2-1.1-1.2-1.6c0-0.5,0.2-1,0.7-1.7
				c0.6,0.7,1.7,1.3,2.4,1.3c0,0,0.1,0,0.4,0c0.3,0,0.5-0.1,0.7-0.1l4.9-2.1c0.7-0.3,1.3-0.5,2-0.8c0-0.5,0.1-1,0.1-1.2
				c0-1.6-0.2-3.8-0.3-4.3c-0.2-0.4-0.4-0.6-1.3-0.7c-0.2,0-0.3,0-0.8-0.1c0.7-1,1.5-1.6,2.2-1.6c1,0,1.6,0.2,2.8,0.7
				c1.3,0.6,1.7,0.9,1.7,1.4c0,0.1,0,0.3-0.2,0.5c-0.6,1.3-0.8,2.2-0.8,3.3v1c0.9-0.1,1.8-0.2,2-0.2c0.9-0.1,1.6-0.2,1.9-0.2
				c0.2,0,1,0,2.3,0.1h0.4c0.4,0,0.4,0,1.6-0.3c0,0,0.1,0,0.2,0c0.4,0,0.6,0.1,1.2,0.6c1.4,1,2,1.7,2,2.2c0,0.1,0,0.3-0.1,0.6
				c-1.2,0.8-1.4,1.4-2,4.7l-0.2,1v0.3l-0.1,0.9c0,0,0,0.3-0.1,0.7c-1.3,6.4-2.3,8.7-4.2,10.4l-0.9,1l-0.5,0.3
				c-0.7,0.6-0.7,0.6-1.1,0.6c-0.4,0-0.8-0.2-0.9-0.4c-0.2-0.2-0.2-0.2-0.5-1.9c-0.1-0.5-0.3-1-0.5-1.6c-0.4-0.9-0.7-1.7-1-2.5
				c0,0-0.1-0.2-0.2-0.5c0.4,0.1,0.6,0.2,0.6,0.3l1.6,1c0.6,0.4,1.2,0.6,1.7,0.6c0.4,0,0.6-0.1,0.9-0.5l0.2-0.3
				c0.1-0.1,0.2-0.2,0.3-0.3c0.1-0.2,0.1-0.4,0.2-0.4c0.2-0.6,0.4-1.1,0.6-1.6c0.3-0.7,1.1-3.9,1.3-5.1c0.3-1.6,0.5-4,0.5-6
				c0-1,0-1.4-0.3-2L93,48.9z"/>
			<path class="st0" d="M106.7,49.9c1-0.1,1.2-0.2,1.5-0.2c0.3,0,0.6,0.1,0.9,0.2c1.1,0.4,1.9,0.7,2,0.7c0.1,0,0.4-0.2,0.5-0.4
				c0-0.1,0-0.1,0.6-1.1c0.1-0.3,0.1-0.3,0.4-0.6c-0.2,1.2-0.2,1.7-0.2,2.4l0.1,2.8c0,1.1-0.6,1.6-1.6,1.6c-0.5,0-0.9-0.2-1.2-0.5
				c-0.4-0.4-0.4-0.4-1.1-2.4c-0.3-0.8-0.4-1-1.1-1.6c-0.3-0.3-0.5-0.4-0.6-0.6L106.7,49.9z M122.5,68.1c-2,1.3-4.3,1.9-8,2.2
				c0.3-0.1,0.4-0.2,0.5-0.2c0.9-0.3,1.8-0.7,2.6-1.1c0.5-0.2,3.8-2.5,4.7-3.3c2.6-2.2,4.6-5.5,6.6-10.6c1.2-2.9,1.7-5.3,1.7-7.1
				c0-1.3-0.3-1.8-1.4-2.5c-0.4-0.2-0.5-0.3-0.8-0.6c0.8-0.6,1.6-0.9,2.1-0.9c0.7,0,1.6,0.5,2.6,1.4c1.2,1.1,1.7,1.8,1.7,2.2
				c0,0.2,0,0.2-0.5,1.1c0,0.2-0.2,0.5-0.3,1.1c-1.8,6.2-2.4,7.5-5.3,12.1c-2.6,3.5-3,4.1-4.7,5.2l-0.5,0.5L122.5,68.1z M115.2,47.1
				c2,0,4.2,0.6,5,1.4c0.7,0.7,1.5,2.2,1.5,2.9c0,0.9-0.9,1.6-2,1.6c-0.4,0-0.6-0.1-0.8-0.3c-0.3-0.3-0.3-0.3-0.9-2.3l-0.3-0.5
				C117,48.4,116.7,48.1,115.2,47.1L115.2,47.1z"/>
		</g>
	</g>
	<g>
		<path class="st1" d="M146.9,82.9c0.8-0.9,1.3-1.6,1.4-1.8l2-3.2c1.8-2.2,2.9-4.4,5.2-10.2c2-7,2.3-8.6,3.1-14.3
			c0.7-3.9,0.9-4.8,0.9-7.1c0-0.5-0.1-0.7-0.3-1.2c-0.5-0.1-0.8-0.2-0.9-0.4l-2.6-2c-1.2,0-1.2,0-1.4-0.3c-0.4-0.4-0.7-1.5-0.7-2.3
			c0-0.8,0.5-1.7,1.4-2.3c1.4-1.2,1.4-1.2,1.5-1.2c0.1,0,0.2,0.1,0.4,0.1c0,2.6,0.2,3,1.9,3.2l12.6-3.4c0.3-0.1,1.9-0.4,3.7-0.8
			c0.9-0.1,1.9-0.4,1.9-0.4c1.1-0.2,2.2-0.5,3.3-0.7c5.9-1,10.7-1.5,14.2-1.5c0.8-0.7,2.4-1.4,3.1-1.4c1.6,0,4.2,1,5.8,2.4
			c0.9,0.7,1.2,1.2,1.2,2c0,0.6-0.4,1-1.4,1.4c-0.4-0.2-0.8-0.4-0.9-0.4l-1.5,0.2c-0.1,0-1.9-0.5-4.7-1.2c-0.9-0.2-2.3-0.4-4-0.4
			c-1.5,0-1.5,0-5.7,0.7l-2.1,0.2c-0.7,0.1-2.1,0.4-3.6,1c-3.6,1.3-6,2.1-6.4,2.3c-1,0.2-1.6,0.4-1.6,0.4c-1.3,0.6-2.6,1.2-3.8,1.8
			l-3.8,1.4c-0.5,0.2-0.9,0.4-1.4,0.7c-0.1,0.1-0.4,0.2-0.8,0.4l0.1,0.9c0.1,0.6,0.1,0.9,0.3,1.2l0.4,0.5c0.1,0.1,0.2,0.4,0.2,0.5
			l-0.1,0.7l-0.1,1.8l-0.4,1.5l-2,11.7l-0.8,2.8c-1.3,4.4-3.7,9.8-4.8,10.7c-4.5,4.6-6.2,5.9-9.2,6.9L146.9,82.9z M164.3,73.1
			c0.4,0.1,0.6,0.1,0.8,0.2c0.6,0.3,1.1,0.4,1.1,0.4c1.6-0.4,1.6-0.4,1.9-0.7c1.8-2.2,5-7.6,8-13.4c0.6-1.1,0.7-1.7,1.4-3.7
			c1.7-5.7,1.7-5.7,1.7-5.8c0-0.1-0.1-0.6-0.4-1c-0.6-0.2-0.9-0.4-1.2-0.7l-0.8-0.7c-0.1-0.1-0.3-0.2-0.6-0.4
			c1.1-1.6,1.6-1.9,3.3-1.9c1.3,0,1.3,0,5.7,2.3c1,0.5,1.6,1.2,1.6,1.8c0,0.3,0,0.3-0.7,1.2l-0.3,0.5l-1.4,1.2
			c-0.4,0.7-0.8,1.4-1.1,2l-1.8,3l-1.6,2.8L173,71.3l0.9-0.4l15.5-4.4h0.3c-0.2-0.3-0.4-0.6-0.5-0.7l-0.4-0.4l-0.7-1.2l-1.1-1.2
			l-0.6-1c0,0-0.4-0.4-0.8-0.7c0.4-0.1,0.9-0.1,1.1-0.1c1.9,0,2.2,0.1,5,2.2c0.7,0.7,0.9,0.7,2.9,2.9c0.9,1.1,0.9,1.1,3.7,5
			c3.4,4.2,4.5,6.5,4.5,8.8c0,0.8-0.3,1.2-0.9,1.2c-0.4,0-0.7-0.1-1.4-0.5c-5-2.2-5.4-2.3-6.5-2.6l-0.1-0.3c0.2-0.3,0.3-0.3,0.9-0.4
			c0.8-0.1,1.1-0.5,1.1-1.1c0-0.4-0.1-0.7-0.6-2c-0.4-0.8-0.6-1.3-0.6-1.4l-0.9-1l-1-1.2c-0.2-0.3-0.5-0.6-1.1-1.1
			c-1.6-0.1-4,0.6-8.9,2.3c-3.6,1.4-6.1,2.4-6.7,2.8c-1.1,0.7-2.1,1.3-3.1,1.9l-1.2,0.8c-3,2.8-3,2.8-3.6,2.8
			c-0.5,0-0.9-0.3-1.9-1.4c-1.9-2-2.3-2.7-2.6-4.3L164.3,73.1z M171.1,22.5c1.1-0.1,1.6-0.1,2.1-0.1c1.2,0,2.4,0.3,4.5,1.2
			c3.1,1.2,5.2,3.5,5.2,5.5c0,1.1-0.9,2-2.1,2c-0.2,0-0.9-0.1-1.6-0.2c-0.6-0.1-0.9-0.1-1.4-0.1l-2.3,0.1h-1.3l-0.4,0.1
			c-0.1,0-0.2-0.1-0.4-0.1v-0.1c1.3-0.7,1.9-1.8,2.1-3.3l-0.8-0.4c-0.3-0.4-0.6-0.7-0.9-1.1l-0.9-0.7c-0.4-0.4-0.9-0.9-1.9-2.5
			L171.1,22.5z"/>
		<path class="st1" d="M226.8,52.2c-0.3,1.2-0.6,2-0.6,2.3c-0.6,1.2-1.1,2.3-1.6,3.4l-1.4,5c-0.1,0.4-0.6,1.7-1.3,2.9
			c-0.3,0.6-0.4,0.9-0.5,1.2l-0.3,1.8c-0.1,0.7-0.7,1.5-1.3,1.5c-0.6,0-0.6,0-2.4-2.3c-1.8-1.9-2-2.3-2-3.7c0-0.7,0-0.7,1.4-2.8
			c0.8-1.1,1.5-7.3,1.5-12.4c0-5.8-0.5-8.7-2.1-11.8l0.1-0.1c0.4,0.2,0.6,0.4,0.8,0.4c1.4,0.7,2.3,1.5,2.8,2.4h0.2
			c0.6,0.7,0.9,1,1.1,1.6c0.6,1.7,1.1,4.5,1.1,6.5c0,0.5,0,0.5-0.5,8v0.1c0,0.2,0,0.2,0.1,2c1.6-1.9,1.9-2.3,2.5-3.4l2.7-3.4
			L226.8,52.2z M237.7,61.4c-1.7-0.8-3.3-2.8-3.3-4.3c0-0.2,0-0.2,0.7-2.3c0.1,0,0.2-1.2,0.3-2.2c0.1-2.2,0.1-3.7,0.1-4.1
			c0.1-1.3,0.1-2.1,0.1-2.4c0-2.8-0.1-7.6-0.2-7.7c-0.1-0.1-0.4-0.3-0.9-0.5c-0.4-0.2-0.9-0.6-1.4-1.2c0.1-0.4,0.3-0.6,0.3-0.7
			c0.4-0.9,0.8-1.2,1.5-1.2c2.9,0,7.4,3.7,7.4,5.9c0,0.5-0.5,0.9-1.4,1.2c-0.2,0.4-0.4,0.8-0.4,1l-0.1,0.5l-0.5,2.8l-0.1,3.7
			l-0.1,3.4v2.1l-0.3,2.4v1.2c-0.1,0.1-0.1,0.4-0.4,1c0,0.1-0.1,0.4-0.2,0.9l-0.4,0.3L237.7,61.4z M250.2,26.1
			c0.4-0.2,0.6-0.4,0.7-0.5l0.7-0.9c0.4-0.5,0.9-0.8,1.5-0.8c1.3,0,2.1,0.3,4.9,1.8c2.6,1.4,2.6,1.4,3.2,2c0.6,0.6,1,1.4,1,2
			c0,0.5,0,0.5-1.6,1.5c-0.4,1.3-0.5,1.7-0.7,2.6c-0.1,0.4-0.2,1.2-0.4,2.2l-0.2,1.8c-0.1,1.2-0.3,2.3-0.5,3.4
			c-0.2,1.8-0.2,2.1-0.4,8.1L258,62.7v0.8c0,0.7,0,0.7,0.1,6.4c0.9,10.4,0.9,10.4,0.9,10.6c0,2.2-0.2,3.4-0.8,4.5
			c-0.6,1.2-0.9,1.5-1.2,1.5c-1.4,0-4.6-5.1-4.6-7.4c0-1.1,0-1.1,1.1-2.4c0.1-0.1,0.2-0.4,0.3-0.7v-3l0.3-6.3v-8.3l0.1-2.6l0.2-22
			l-0.1-3.4c0-1.7-0.1-1.8-1.3-3.1c-0.3,0.1-0.5,0.1-0.7,0.1c-0.4,0-0.6-0.1-2-1.2L250.2,26.1z"/>
	</g>
</g>
</svg>
